<?xml version="1.0" encoding="UTF-8"?>
<svg version="1.1" viewBox="0 0 2048 2048" width="512" height="512" xmlns="http://www.w3.org/2000/svg">
<path transform="translate(889,62)" d="m0 0 329 1 43 3 36 4 39 6 35 7 40 10 43 13 37 13 41 17 28 13 32 16 23 13 17 10 24 15 25 17 14 10 21 16 14 11 13 11 11 9 12 11 2 1v2l4 2 8 8 8 7 27 27 7 8 7 7 7 8 12 14 11 13 11 14 14 18 12 17 14 20 12 19 11 18 15 26 13 25 8 16 12 25 15 36 15 41 10 32 11 41 8 37 8 44v27l-6 26-8 21-8 15-11 15-11 12-10 9-13 9-12 7 2 5 7 14 6 20 1 7v24l-4 19-8 19v3l16 8 14 10 13 12 8 10 10 16 8 20 5 19 1 6v29l-5 20-7 19-9 16-13 16-12 11-15 10-12 7-5 2 8 20 5 18 2 13v29l-3 17-5 17-12 25-4 5-1 3 10 3 16 8 11 7 10 8 12 12 10 14 8 15 7 19 4 18v33l-7 24-7 17-11 17-12 13-11 10-12 8-2 3v22l-1 56-3 25-6 25-5 16-8 20-12 23-11 17-13 17-11 12-4 5-8 7-12 11-18 13-25 15-19 9-22 8-24 6-16 3-20 2h-1450l-26-3-26-6-21-7-18-8-21-11-15-10-13-10-11-9-23-23-11-14-10-14-13-22-10-22-9-27-5-22-3-22-1-17v-66l-11-8-10-8-13-13-10-14-9-17-7-22-2-8v-36l6-22 6-16 6-11 10-14 11-12 10-8 18-11 17-7 3-1-1-4-8-13-8-18-6-22-2-16v-17l3-20 6-21 6-13v-3l-15-8-12-8-15-13-9-10-10-15-8-17-6-20-2-9v-34l6-23 8-18 8-14 11-13 9-9 15-11 18-9-1-5-5-11-5-17-2-15v-11l3-18 6-18 7-13 1-3-14-8-13-10-13-12-11-13-10-16-9-19-6-20-3-14v-33l10-52 10-42 8-28 10-32 11-30 11-27 11-25 14-29 10-19 6-11 11-20 16-26 18-27 13-18 10-14 20-25 11-13 9-11 7-7 7-8 9-10 11-11 1-2h2l2-4h2l2-4 8-7 13-13 8-7 12-11 11-9 13-11 17-13 18-14 19-13 30-20 28-17 27-15 23-12 27-13 33-14 34-13 36-12 35-10 24-6 6-1h11l8 3 8 6 6 9 2 4 38-6 31-4 1-1 2-10 4-8 5-6 12-6 7-1 17-1z" fill="#020101"/>
<path transform="translate(778,96)" d="m0 0 2 2 5 13 5 5 9 6 4 1h408l35 2 46 5 43 7 41 9 30 8 38 12 33 12 29 12 34 16 22 11 18 10 29 17 10 7 16 10 17 12 19 14 14 11 16 13 13 11 10 9 8 7 15 14 30 30 7 8 9 10 9 11 9 10 7 9 11 14 14 19 12 17 17 26 12 20 12 21 18 34 12 26 15 36 13 36 12 39 8 30 8 37 5 29 1 8v13l-4 17-8 16-7 11-13 13-13 8-11 5-14 4-6 1h-1779l-16-4-17-8-12-9-9-9-9-14-5-11-4-16-1-17 3-21 9-45 10-39 13-42 12-33 13-31 12-26 19-38 14-24 16-26 17-25 11-15 8-11 14-18 11-13 9-11 13-14 7-8 7-7 7-8 16-16 8-7 7-7 8-7 11-10 11-9 16-13 13-10 19-14 19-13 18-12 28-17 24-13 19-10 22-11 30-13 20-8 24-9 33-11 28-8 28-7 10-5 7-8 4-9 1-7v-6l5-2 33-5z" fill="#F69606"/>
<path transform="translate(130,1498)" d="m0 0h157l324 1 215 1 12 11 8 7 10 9 8 7 12 11 8 7 10 9 8 7 10 9 11 10 8 7 10 9 13 12 2 1v2h2v4l-15 8-32 22-14 8-15 5-11 2h-24l-16-3-14-5-18-11-15-11-19-12-15-7-15-5-9-2h-12l-8 3-7 6h-2l-2 5-3 6-1 13 3 10 7 8 8 5 18 6 16 8 12 8 22 15 18 10 17 6 16 4 17 2h26l22-3 18-5 16-7 20-12 24-16 19-10 12-4 14-2h14l14 2 18 6 15 8 24 16 16 10 17 8 20 6 22 3h27l21-3 15-4 15-6 18-10 18-12 14-9 15-8 15-5 14-2h11l16 2 18 6 17 9 22 15 16 10 17 8 20 6 22 3h28l21-3 15-4 18-8 14-8 29-19 16-9 17-6 15-2h10l17 2 15 5 19 10 30 20 16 9 15 6 20 5 17 2h27l21-3 20-6 17-7h2v28l-3 28-6 24-8 21-10 19-8 12-10 13-11 12-12 12-19 14-19 11-23 10-24 7-18 3-8 1-19 1-1423-1-20-2-15-3-20-6-19-8-15-8-12-8-13-10-13-12-12-13-13-18-9-16-7-15-8-24-4-18-2-15-1-15v-24l9 3 15 6 20 5 16 2h29l20-3 15-4 16-7 18-10 30-20 16-8 14-5 15-2h10l17 2 15 5 19 10 30 20 16 9 15 6 15 4 21 3h27l23-3 20-6 17-8 10-9 4-8 1-3v-12l-6-12-4-5-7-4-7-2h-11l-12 5-18 6-11 2h-23l-15-3-13-5-15-8-33-22-19-10-17-6-22-4-14-1h-12l-22 2-18 4-16 6-14 7-20 13-15 10-16 9-14 5-14 3h-23l-16-3-13-5-12-7-17-12-17-11-19-11-13-10-9-12-6-16-2-16 1-15 4-13 7-11 9-10 14-9 11-5 9-2z" fill="#F69606"/>
<path transform="translate(1454,1086)" d="m0 0h69l3 9 5 10 8 6 8 3 25 1 357 1 15 3 16 8 10 8 9 13 5 11 3 10 1 7v10l-2 12-5 12-7 11-11 11-25 16-19 12-17 11-15 8-14 4-6 1h-29l-17-4-19-9-27-18-18-11-15-7-15-5-15-3-9-1h-33l-20 3-20 6-17 8-22 14-21 14-14 7-16 5-5 1h-28l-14-3-15-6-15-9-27-18-16-9-15-6-19-5-15-2h-32l-20 3-20 6-16 8-14 8-27 18-12 7-13 5-13 3h-28l-14-3-15-6-14-8-16-11-17-11-16-8-16-6-19-4-9-1h-33l-19 3-15 4-18 8-14 8-30 20-17 9-16 5-6 1h-27l-14-3-13-5-13-7-30-20-15-9-20-8-16-4-16-2h-31l-20 3-17 5-12 5-15 8-18 12-17 11-16 8-15 5-6 1h-28l-15-3-15-6-39-26-10-7-1-1v-81l3-12 6-11 6-7 10-7 13-6 11-2h945l8-2 9-6 6-8z" fill="#85CF61"/>
<path transform="translate(164,970)" d="m0 0h1722l13 3 10 6 7 7 6 10 3 10v16l-5 12-7 10-10 7-11 4-8 1-335 1-9 3-8 6-5 8-4 12-8 1h-57l-4-1-4-11-5-8-1-3-12-6-3-1h-955l-19 3-15 5-14 7-12 9-10 9-8 9-10 15-6 14-4 15-2 10-1 141v23l-2 11-5 9-9 8-9 4h-15l-12-6-7-8-4-9-1-4-1-157-1-15-4-17-7-16-8-14-8-10-6-7-13-10-16-9-15-6-15-3-12-1-44-1-13-4-11-8-6-8-5-11-1-4v-16l3-10 6-9 8-8 8-5 7-2z" fill="#E7453C"/>
<path transform="translate(130,1498)" d="m0 0h157l324 1 215 1 12 11 8 7 10 9 8 7 12 11 8 7 10 9 8 7 10 9 11 10 8 7 10 9 13 12 2 1v2h2v4l-15 8-32 22-14 8-15 5-11 2h-24l-16-3-14-5-18-11-15-11-19-12-15-7-15-5-9-2h-12l-8 3-7 6h-2l-2 5-3 6-1 7-2 1h-15l-18 4-16 6-13 7-15 10-4-2-5-5-5-3-7-2h-11l-12 5-18 6-11 2h-23l-15-3-13-5-15-8-33-22-19-10-17-6-22-4-14-1h-12l-22 2-18 4-16 6-14 7-20 13-15 10-16 9-14 5-14 3h-23l-16-3-13-5-12-7-17-12-17-11-19-11-13-10-9-12-6-16-2-16 1-15 4-13 7-11 9-10 14-9 11-5 9-2z" fill="#86CF61"/>
<path transform="translate(1855,1498)" d="m0 0h68l15 2 12 4 13 8 10 9 7 10 6 13 2 13v11l-2 14-6 14-7 9-9 9-13 8-19 11-20 14-14 9-15 7-17 4h-24l-16-3-16-6-18-11-21-14-15-9-15-7-16-5-18-3-14-1h-13l-21 2-19 4-20 8-14 8-35 23-16 8-17 5-6 1h-21l-17-3-17-7-15-9-10-7-15-10-18-10-15-6-15-4-14-2-24-1-23 2-18 4-19 7-16 9-35 23-16 8-13 4-11 2h-22l-16-3-14-5-18-11-12-9-19-12-10-5 1-4 13-12 8-7 12-11 8-7 10-9 8-7 12-11 11-9 7-7 8-7 13-12 11-9 11-10 10-1h544z" fill="#85CF61"/>
<path transform="translate(674,1638)" d="m0 0h15l2 6 3 10 7 8 8 5 18 6 16 8 12 8 22 15 18 10 17 6 16 4 17 2h26l22-3 18-5 16-7 20-12 24-16 19-10 12-4 14-2h14l14 2 18 6 15 8 24 16 16 10 17 8 20 6 22 3h27l21-3 15-4 15-6 18-10 18-12 14-9 15-8 15-5 14-2h11l16 2 18 6 17 9 22 15 16 10 17 8 20 6 22 3h28l21-3 15-4 18-8 14-8 29-19 16-9 17-6 15-2h10l17 2 15 5 19 10 30 20 16 9 15 6 20 5 17 2h27l21-3 20-6 17-7h2v28l-3 28-2 9h-1v-10l-5 3-3 3-3 7h-5l-3-1v9l-5 5v2h-2v-2l-3-1v-3h2l1-3h-3l-3-3-10-1-30-1-16-2-21-5-24-12-14-9-11-7-12-8-11-6-14-5-17-4-17-2-25 2-15 2-19 7-11 6-14 9-4 3h-2v2l-6 3-9 6-10 6-12 5-13 4-15 3-19 1-18-2-16-4-15-6-12-6-14-9-17-11-11-7-14-6-8-3-18-4-22-1-18 2-12 2-14 4-17 8-30 20-14 9-17 7-9 3-16 3h-33l-20-5-14-5-15-8-14-9-20-13-15-8-6-3-14-4-22-3h-9l-18 2-16 2-12 4-11 5-14 8-10 7-12 8h-2v2l-23 12-10 4-22 4-11 1-21-1-17-4-19-7-15-8-12-8-20-13-15-8-14-5-6-2-15-2-17-1-28 3-9 3-10 3-17 8-9 6-10 7-15 10-16 8-11 5-25 5-11 1-20-1-20-5-16-6-17-9-18-12-14-9-3-1v-2l-7-2-10-5-13-4-13-2-15-1-32 3-9 3-7 2-12 5-9 5-11 7-8 6-9 7-13 10h-2v2h-2v2h-2v2h-2l-1 4-4 6h-2l-1 4-5 19v13l5 17 10 15 3 4v2h2l2 5h2l4 6v2h2l6 8v2h2l2 4 5 4 2 5 4 2v2l3 1 5 5 9 8 17 9v4h1381l29 1v1l-1423-1-20-2-15-3-20-6-19-8-15-8-12-8-13-10-13-12-12-13-13-18-9-16-7-15-8-24-4-18-2-15-1-15v-24l9 3 15 6 20 5 16 2h29l20-3 15-4 16-7 18-10 30-20 16-8 14-5 15-2h10l17 2 15 5 19 10 30 20 16 9 15 6 15 4 21 3h27l23-3 20-6 17-8 10-9 4-8 1-3v-12l-4-9 2-4 19-12 15-7 16-5z" fill="#EE7F05"/>
<path transform="translate(678,1285)" d="m0 0h30l15 4 16 8 11 6 10 7 15 10 20 11 21 8 16 3 11 1h34l23-4 15-5 16-8 12-7 15-10 19-12 14-7 13-4 5-1h29l12 3 13 5 15 8 16 11 16 10 14 8 12 5 9 3 19 4 12 1h29l21-3 15-4 16-7 16-9 16-11 15-10 19-10 16-4h31l-2 4-8 7-15 14-8 7-30 27-8 7-13 12-8 7-10 9-8 7-12 11-8 7-12 11-8 7-40 36-8 7-12 11-8 7-20 18-8 7-12 11-8 7-12 11-8 7-12 11-11 9-16 15-8 7-11 10-5-1-13-12-11-9-7-7-8-7-14-13-8-7-10-9-8-7-12-11-14-12-15-14-8-7-11-10-8-7-12-11-8-7-11-10-8-7-12-11-8-7-11-10-8-7-11-9-5-5-12-11-2-1v-2l-4-2-5-5-30-27-8-7-12-11-11-10-11-9-7-7z" fill="#FEE07B"/>
<path transform="translate(1454,1086)" d="m0 0h69l3 9 5 10 8 6 8 3 25 1 357 1 15 3 16 8 10 8 9 13 5 11 3 10 1 7v10l-1 8h-1l-1-6v-10l-6-1v-5l-2-4-9-1-52-1-304 1-101-1h-1057l-6 1h-9l-4 4-1 70h-1v-81l3-12 6-11 6-7 10-7 13-6 11-2h945l8-2 9-6 6-8z" fill="#71C446"/>
<path transform="translate(778,96)" d="m0 0 2 2 5 13 3 5-6 2-2 5-3 3-9 3-10 1-22 4-9 1v2l-9 1-16 3-8 5-2 2h-3l-1 2-7 4-8 4-12 3-4 2h-3v2l-11 3-2 2-6 2-10 4-16 8-17 8-6 3h-2v2l-14 7-15 9-31 19-1 2-9 5-9 7-11 8-9 6-15 11h-2v2l-11 8-13 11-4 2v2l-5 2-2 4-10 9-4 2v2h-2v2l-5 4h-2l-2 4-5 5-5 6-24 24-5 6-14 14-2 3h-2l-2 4-12 13-8 11-9 11-13 17-13 18-14 20-8 13-3 5h-2l-2 6-15 26-13 24-11 22-13 29-8 19-11 29-12 35-10 34-9 37-7 35-3 21-2 19 1 11 3 16 2 3 3 9 3 6 2 1 6 12 6 9v3l2 1 2 5 9 1 1722 1v1h-1779l-16-4-17-8-12-9-9-9-9-14-5-11-4-16-1-17 3-21 9-45 10-39 13-42 12-33 13-31 12-26 19-38 14-24 16-26 17-25 11-15 8-11 14-18 11-13 9-11 13-14 7-8 7-7 7-8 16-16 8-7 7-7 8-7 11-10 11-9 16-13 13-10 19-14 19-13 18-12 28-17 24-13 19-10 22-11 30-13 20-8 24-9 33-11 28-8 28-7 10-5 7-8 4-9 1-7v-6l5-2 33-5z" fill="#EE7F05"/>
<path transform="translate(1676,1285)" d="m0 0h20l16 3 15 6 14 8 15 10 17 11 10 6 20 8 21 5 20 2h14l19-2 18-4 22-7 3 2 4 15 1 5v21l-3 11-6 15-9 13-11 11-13 8-16 6-13 2h-563v-3l15-13 15-14 11-9 16-15h2v-2l8-7 10-9 11-9 8-8 8-7 11-10 8-7 10-9 2-2h5l14 9 16 8 18 6 22 4 13 1h14l19-2 18-4 14-5 16-8 18-11 18-12 18-10 16-5z" fill="#C42E41"/>
<path transform="translate(433,1315)" d="m0 0 10 5 16 9 20 8 21 5 20 2h13l19-2 16-3 20-7 21-11 8-5 5 1 12 11 10 9 8 7 12 11 8 7 12 11 8 7 12 11 8 7 10 9 14 12 13 12 8 6v3h-561l-16-2-13-5-12-7-10-9-9-10-8-16-4-12-1-5v-19l2-12 3-10 5-1 18 6 18 4 15 2h25l28-5 13-3 3 8 7 16 6 10 9 11 10 9 11 7 13 6 13 4 6 1h25l16-4 16-7 12-8 10-9 8-9 8-14 5-12 4-17z" fill="#C42E41"/>
<path transform="translate(130,1498)" d="m0 0h157l324 1 215 1 12 11 8 7 10 9 8 7 12 11 3 3-4-1-1 3-13-1h-613l-25 2-19 7-15 8-11 9-12 15-7 12-6 18-2 21 1 8 4 2 2 4 5-1 2 5-3 1-7-1-12-7-17-12-17-11-19-11-13-10-9-12-6-16-2-16 1-15 4-13 7-11 9-10 14-9 11-5 9-2z" fill="#71C446"/>
<path transform="translate(1855,1498)" d="m0 0h68l15 2 12 4 13 8 10 9 7 10 6 13 2 13v11l-1 9h-1l-1-7v-12l-2-2-5-4-1-2-6-1h-799l3-5 15-14h2l1-4 7-7 11-9 11-10 10-1h544z" fill="#71C446"/>
<path transform="translate(117,1116)" d="m0 0h86l13 3 13 7 10 10 7 13 2 7 1 8v102l-3 5-15 8-13 4-16 2h-12l-21-3-15-6-16-10-20-14-15-9-17-10-12-11-7-11-5-13-2-16 1-16 3-10 7-13 13-13 14-8 13-5z" fill="#71C446"/>
<path transform="translate(678,1285)" d="m0 0h30l15 4 16 8 11 6 10 7 15 10 20 11 21 8 2 5h2l4 6 13 12 11 9 17 16 11 9 9 9 8 7 12 11 11 9 9 9 10 8v2l4 2 5 4 5 5 16 15 8 7 11 9v2l4 2 16 15 8 7 14 12 11 10 11 9 10 8 3 3-5 7-5 5-16 15-8 7-5 1-14-13-11-9-7-7-8-7-14-13-8-7-10-9-8-7-12-11-14-12-15-14-8-7-11-10-8-7-12-11-8-7-11-10-8-7-12-11-8-7-11-10-8-7-11-9-5-5-12-11-2-1v-2l-4-2-5-5-30-27-8-7-12-11-11-10-11-9-7-7z" fill="#FED65E"/>
<path transform="translate(269,1081)" d="m0 0 4 2 3 2h12l29 1 25 2 5 1 13 5 15 9v2h2v2l4 1v3h2l2 6-5 11-4 15-2 10-1 141v23l-2 11-5 9-9 8-9 4h-15l-12-6-7-8-4-9-1-4-1-157-1-15-4-17-7-16-8-14-8-10-6-7z" fill="#DC2B2E"/>
<path transform="translate(232,1166)" d="m0 0h14l1 1 1 102-9 6-11 5-16 4-10 1h-12l-21-3-15-6-2-1-1-10-1-12 2-14 4-15 9-17 9-11 7-7 10-7 16-8 12-5z" fill="#85CF61"/>
<path transform="translate(129,1332)" d="m0 0 7 1 15 5 18 4 15 2h25l13-2h5l-3 2-15 3 1 1 2 19 3 18 5 17 4 10 8 13 3 3 3 6-2 4h519v-3l3 4-1 1h-561l-16-2-13-5-12-7-10-9-9-10-8-16-4-12-1-5v-19l2-12 3-10z" fill="#A02D30"/>
<path transform="translate(164,970)" d="m0 0h346l101 1v1l-382 1-3 3-1 4-2 2-2 7-2 11-1 20 3 16 4 10 3 5v2h2v3h2l3 6-20-4-12-1-44-1-13-4-11-8-6-8-5-11-1-4v-16l3-10 6-9 8-8 8-5 7-2z" fill="#D92B2F"/>
<path transform="translate(1047,373)" d="m0 0h14l10 4 8 7 5 9 1 4v12l-6 12-12 13-50 50-11 8-8 3h-10l-9-3-9-7-5-9-2-6v-11l3-8 4-6 8-9h2l2-4h2l2-4h2l2-4h2l2-4h2l2-4 35-35 11-7z" fill="#020101"/>
<path transform="translate(740,610)" d="m0 0h9l10 4 8 6 6 5 4 4v2l3 1 7 8 42 42 5 7 3 7v10l-4 11-7 8-5 4-7 3h-14l-8-3-10-8-58-58-7-10-2-5v-17l7-12 8-6 4-2z" fill="#020101"/>
<path transform="translate(551,373)" d="m0 0h13l10 4 8 7 5 9 2 11-4 13-9 11-57 57-10 7-8 3h-10l-12-5-8-8-4-8-1-4v-9l3-10 6-8 41-41 7-8 12-12 10-7z" fill="#020101"/>
<path transform="translate(1237,610)" d="m0 0h9l10 4 10 8 59 59 6 9 3 9-1 10-4 9-7 8-8 5-3 1h-14l-8-3-8-6-61-61-7-11-2-8 1-11 6-12 9-7 4-2z" fill="#020101"/>
<path transform="translate(1546,373)" d="m0 0h11l12 5 8 8 5 12v9l-4 11-9 10-61 61-9 5-4 1h-10l-11-4-8-7-5-10-1-3v-13l3-7 6-9 60-60 9-6z" fill="#020101"/>
<path transform="translate(289,905)" d="m0 0h1526l12 1 8 2v1h-1556l-5-1-4-2z" fill="#FFA40A"/>
<path transform="translate(787,1919)" d="m0 0h716l128 1 72 1 16 1 22 1v1h-1367v-1l9-1v-1l30-1z" fill="#FFA40A"/>
<path transform="translate(840,124)" d="m0 0h393l13 1 8 2v1l-12 2-12-1-10 1h-36l-34-2h-72l-84 1-65-1-89-2z" fill="#FEA20A"/>
<path transform="translate(1080,384)" d="m0 0 6 5 2 8h2l2 11v7l-3 6-9 11h-2v2l-10 7-2 3h-2l-2 4h-2v2l-7 6-1 2h-2v2h-2l-1 3h-2l-2 4-13 12-10 6-3 3-4 3v2h-2l-1 3-7 3-9 1-15-2-2-1v-2l-3-1-3-3-4-2-2-4-1-8 5 5 4 5 8 5 7 2h10l10-4 13-11 53-53 7-10 3-7v-12l-4-10z" fill="#FB9D0A"/>
<path transform="translate(129,1332)" d="m0 0h4v2l3 1-1 2-1 3h-2l-1 10-1 9h-2l1 11 1 1v6l3-1 1 6 2 1v5l4 2 4 8v2l5 1 2 6 2 4 3 5 1 1 2 4 11 7-4 2-8-2-9-7-9-9-7-10-7-16-3-12v-19l2-12 3-10z" fill="#BF2E3F"/>
<path transform="translate(1216,660)" d="m0 0 5 2 63 63 9 5 4 1h14l10-5 8-9 3-8h2l1-8h1l4 12-3 8-5 5-4 2v2l-5 3h-2l-1 2-12 3h-8l-11-4-6-4-8-5-2-4-2-1-1-1-3-2-1-2-3-1-4-4-2-5h-2l-1-2-3-2v-2l-4-2v-2l-8-7-3-4-4-5-7-6-7-8z" fill="#FA9C0A"/>
<path transform="translate(1047,369)" d="m0 0h12l8 4v2l-6-1h-14l-10 5-12 11-28 28-5 6-7 6-5 6-7 6-7 10-3 8-1 10h-1l-1-13 8-16 3-4h2l2-4 6-5 6-7h2v-2h2v-2h2l2-4h2l2-4h2l2-4 8-8h2l2-4h2l2-4 9-9 10-7 6-2z" fill="#FA9D0A"/>
<path transform="translate(1889,1840)" d="m0 0 1 3-8 11-12 13-12 12-19 14-19 11-23 10-13 4h-2l1-3 5-3 7-1 3-3 11-4 7-3 14-9 14-10 11-8h2v-2h2v-2l11-9 5-7h2l2-5h2v-2z" fill="#F99B0A"/>
<path transform="translate(831,681)" d="m0 0h3l2 5v3h2l3 5 2 11v9l-4 10-13 9-11 4-11 1-10-4-4-4 2-2 8 3h14l10-5 7-7 4-9 1-4v-10l-5-10-1-4z" fill="#F99B0A"/>
<path transform="translate(1582,409)" d="m0 0h3v7l-3 8-5 6-5 2v2l-8 5-7 8-6 7h-2l-2 4-10 10-3 4h-2l-2 4h-2l-2 4h-6v2h-2v2l-3-1 47-47 3-5h2l2-4 8-9 3-7h2z" fill="#FB9F0A"/>
<path transform="translate(1834,1657)" d="m0 0 10 2 1 1 10 1h19l4-1 4-2 3 3-2 2-17 4h-24l-16-3-3-2h3l1-4z" fill="#71C446"/>
<path transform="translate(1980,853)" d="m0 0h1l-1 7-6 11-6 9-12 12-13 8-11 5-4-1 6-5 10-6 5-4 13-10 7-9 3-6 3-4 2-5h2z" fill="#FC9E09"/>
<path transform="translate(718,657)" d="m0 0 5 3 9 10 49 49 1 4-7-2-1-2-7-6-1-2-3-2-1-2-3-2v-2l-4-2v-2l-4-2v-2l-3-2v-3h-3l-1-3-3-2 1-2-4-2-4-4v-2l-4-2v-2l-5-1-2-4-5-7z" fill="#FB9C09"/>
<path transform="translate(541,375)" d="m0 0 1 3-10 8-10 10-7 8-18 18h-2l-2 4-20 20-4 7h-1l1-7 11-12 5-5 6-7 4-4h2l2-5 5-3 5-7h2v-2h2v-2h2l1-2 8-8 2-1 2-3 5-5 5-4z" fill="#F3930D"/>
<path transform="translate(835,1657)" d="m0 0h8l9 3 11 1 19 1 4 2-15 3h-24l-16-3-3-2 3-1z" fill="#71C446"/>
<path transform="translate(170,1656)" d="m0 0 11 1 10 4h13l9 1 5 2v1l-11 2h-23l-16-3-3-2h4v-2h-2v-2z" fill="#71C446"/>
<path transform="translate(1243,606)" d="m0 0h8l6 4 2 4-7-1-6-2h-9l-8 2-9 6-5 8-3 10-1 10-2-2-2-6 1-9 4-10 7-6 9-6h8z" fill="#F99C0A"/>
<path transform="translate(1165,1658)" d="m0 0h10l9 3h27v2l4 1-15 3h-22l-16-3-3-2 4-2z" fill="#71C446"/>
<path transform="translate(1504,1656)" d="m0 0 5 2 11 2h9l5 1 7 1 1 3-10 2h-21l-13-2 1-2-2-2 1-2-2-1z" fill="#71C446"/>
<path transform="translate(504,1657)" d="m0 0 13 1 7 2 22 2 4 3-11 2h-23l-11-2v-2l-3-1-1-4z" fill="#71C446"/>
<path transform="translate(964,477)" d="m0 0 5 5 4 5 8 5 7 2h10l15-6v5h-2l-1 3-7 3-9 1-15-2-2-1v-2l-3-1-3-3-4-2-2-4z" fill="#F8990A"/>
<path transform="translate(1460,477)" d="m0 0h3l6 9 7 5 9 3h10l13-4v2h-2v5l-13 3-14-2-8-3-4-4v-2h-2l-6-9z" fill="#F89A0A"/>
<path transform="translate(1531,377)" d="m0 0m-1 1m-1 1 1 3-53 53-2-1 5-6h2l3-6h2v-2h2l2-4 8-10 7-6 5-5 7-6 5-5z" fill="#FC9E08"/>
<path transform="translate(590,401)" d="m0 0 4 4v9l-6 10h-2l-1 3-8 6-4 2-4-1 9-9 6-8z" fill="#FA9D0A"/>
<path transform="translate(1543,353)" d="m0 0 5 1 4 4-3 1-6-1-2 4h-3v2h-2v2h-7-3l-4 2h-3v-3h2l2-4 12-6z" fill="#EF8005"/>
<path transform="translate(745,607)" d="m0 0m-13 1h13l-2 2-11 3-9 6-7 12-2 14-2-1v-13l4-11 5-6 6-2v-2z" fill="#FB9D0A"/>
<path transform="translate(534,471)" d="m0 0 1 2-7 8-6 5-7 8-6 4-11 2-4-2v-2l13-4 5-3 5-1z" fill="#F89A0B"/>
<path transform="translate(1248,126)" d="m0 0 18 1 19 2 4 3-2 2h-7l-7-1-13-1-6-2v-3h-6z" fill="#F5940B"/>
<path transform="translate(568,435)" d="m0 0 2 1-30 30-3 5-5 3-17 17-1-3 13-12z" fill="#F79207"/>
<path transform="translate(1465,444)" d="m0 0 1 3-4 7-1 4v13l1 6h-2l-2-4-1-8h-2v-6l4-9h2l2-4z" fill="#F3930C"/>
<path transform="translate(950,1612)" d="m0 0 6 4v2h2v4l-9 4v-2l-5-1v-4l5-5z" fill="#71C447"/>
<path transform="translate(1203,1278)" d="m0 0h9l1 4-9 2h-28l-6-1 4-2h6l1 1h18l4-1z" fill="#71C446"/>
<path transform="translate(470,482)" d="m0 0 4 2 7 6 10 4 1 4-5 1-8-4-8-8z" fill="#F3930C"/>
<path transform="translate(1329,681)" d="m0 0 1 2h2l3 5 3 7v7l-3-1v6l-2 2v-10l-4-11-2-3v-3z" fill="#F7980A"/>
<path transform="translate(215,1279)" d="m0 0 1 2h6l-4 2-16 2h-12l-16-2v-1l10-1 13 1h13l5-1z" fill="#71C446"/>
<path transform="translate(778,630)" d="m0 0 3 1 5 6 4 3v2h3l1 4 4 1v3l4 1v3l4 1-1 4-25-25z" fill="#F99808"/>
<path transform="translate(1869,1278)" d="m0 0h4v2l5 1v1l-11 2h-29l-6-1v-1h33z" fill="#71C446"/>
<path transform="translate(747,606)" d="m0 0h5l12 8v2l-5-1-10-4-6-1z" fill="#F7990B"/>
<path transform="translate(90,1509)" d="m0 0 2 1-10 8-8 8-6 10-3 4 1-6 9-13 10-9z" fill="#7FCC59"/>
<path transform="translate(537,466)" d="m0 0h2l-2 5-5 3-17 17-1-3 13-12z" fill="#F49109"/>
<path transform="translate(585,388)" d="m0 0 4 1 2 2 1 7-3 8-1-2-2-11z" fill="#F4940C"/>
<path transform="translate(721,1674)" d="m0 0h8l10 5 2 4-7-2-8-4-5-2z" fill="#F08A08"/>
<path transform="translate(1211,643)" d="m0 0h1l3 10 5 8-5-2-4-6-2-2z" fill="#EC890D"/>
<path transform="translate(715,627)" d="m0 0 1 4-2 14-2-1v-13z" fill="#FDA009"/>
<path transform="translate(534,471)" d="m0 0 1 2-7 8-6 5-2 2v-3z" fill="#FFA40A"/>
<path transform="translate(540,1278)" d="m0 0h6l2 2-2 1-2-1v2l3 1-6 1h-11v-1l10-1v-1z" fill="#71C446"/>
<path transform="translate(1669,286)" d="m0 0 9 6 2 3-7-1-4-5z" fill="#E9830E"/>
<path transform="translate(1300,133)" d="m0 0 13 1 3 2-8 1-8-2z" fill="#FDA109"/>
<path transform="translate(1788,1912)" d="m0 0 4 1 1 2-11 3 1-3z" fill="#F8990A"/>
<path transform="translate(1460,477)" d="m0 0h3l3 5-1 2h-4l-2-6z" fill="#F89709"/>
<path transform="translate(1870,1278)" d="m0 0h3v2l5 1v1l-13 2z" fill="#73C548"/>
<path transform="translate(1774,1917)" d="m0 0m-7 1h7l3 2-12 2z" fill="#F1900C"/>
<path transform="translate(1395,1606)" d="m0 0 5 1 1 4-8-1-3-2z" fill="#71C446"/>
<path transform="translate(1895,1784)" d="m0 0 2 2-1 7h-2v-2l-3-1v-3h2z" fill="#EF8205"/>
<path transform="translate(781,720)" d="m0 0 8 6 2 1-1 2h-3l-6-7z" fill="#EF8A0B"/>
<path transform="translate(679,1285)" d="m0 0h12v2l-9 1z" fill="#F79407"/>
<path transform="translate(473,442)" d="m0 0 3 1-6 8-2 2 1-7z" fill="#E58010"/>
<path transform="translate(1472,436)" d="m0 0h2l-2 4-5 6-2-3z" fill="#FA9908"/>
</svg>
