<?xml version="1.0" encoding="UTF-8"?>
<svg version="1.1" viewBox="0 0 2048 2048" width="512" height="512" xmlns="http://www.w3.org/2000/svg">
<path transform="translate(491)" d="m0 0h30l107 8 9 2 9 6 6 9 3 10 1 4 73 5h5l5-13 7-8 12-6h19l702 45 92 6 13 2 8 5 7 8 5 11 17 46 32 86 12 32 22 3 13 4 11 6 8 6 10 9 9 12 7 15 3 11 1 9v205l-3 9-4 6-5 5-10 5-12 1h-68l-1 22-12 165-1 11h10l11 3 9 5 7 9 2 5v24l-9 127-2 14-5 10-8 7-8 3-8 2-3 27-3 46-1 11 11 4 8 6 6 9 2 7-1 26-8 113-13 186-8 114-2 21-3 10-9 10-12 5-5 1-17 1v14l-8 111-7 96-6 81-3 27-6 25-6 16-8 16-8 14-12 16-14 15-11 10-15 11-22 12-21 8-22 6-10 2h-741l-30-7-20-7-21-11-12-8-11-9-10-9-8-8-11-14-7-10-8-14-8-17-6-18-4-17-3-25-13-176v-23l5-10 7-7 8-4 6-2v-13l-5-71-51-1-9-3-10-9-4-8-2-11-11-154-29-414-12-170v-10l3-9 4-6 6-5 8-4 8-2h11l-1-4-7-100-6-83v-11h-74l-10-2-9-6-6-8-3-8-1-7v-185l1-20 4-16 8-16 9-11 9-9 14-9 13-5 16-3h11l3-9 12-33 20-54 18-48 14-38 17-46 6-15 6-8 10-7z" fill="#010000"/>
<path transform="translate(438,822)" d="m0 0h1172v12l-7 99v12l3 9 4 6 8 6 7 3 6 2-1 18-2 26-2 29-1 9-1 2-13 3-8 5-7 8-3 11-5 66-24 339-1 17-2 3h-1075l-1-1-9-128-36-513-2-27z" fill="#DEA876"/>
<path transform="translate(503,1567)" d="m0 0h1011l1 4-11 153-10 141-3 25-4 15-6 15-9 16-8 10-9 10-13 11-13 8-13 6-21 6-9 1h-723l-20-3-16-6-15-8-8-6-11-9-5-5-10-13-8-13-5-9-6-17-3-15-3-31-12-166-2-16-4-6-5-5-5-4-17-3v-14z" fill="#D6ECFD"/>
<path transform="translate(375,319)" d="m0 0h87l1213 1 6 4 7 8 1 5v166l-67 1h-1262l-1-1v-169l4-7 9-7z" fill="#B18060"/>
<path transform="translate(581,563)" d="m0 0h83l923 1-1 25-10 138-2 28-2 7-5 1-1092-1-2-17-12-166v-15z" fill="#D6ECFD"/>
<path transform="translate(655,39)" d="m0 0 74 5h6l2 12 5 10 7 6 8 3 19 2 761 49 13 1 3 2 15 41 15 40 11 30 6 15v4h-1153l3-10 9-24 17-46 23-62 16-43 5-12 1-1 22 1 77 5 13-1 10-5 7-8 4-11z" fill="#B18060"/>
<path transform="translate(1015,934)" d="m0 0h18l20 2 19 4 21 7 23 11 11 7 11 8 13 11 13 13 11 14 10 15 12 25 6 18 4 17 2 14v127l-3 21-5 19-7 18-8 16-10 16-9 11-11 12-10 10-20 15-16 9-14 7-27 9-22 4-8 1h-30l-26-4-21-6-21-9-16-9-13-9-10-8-13-12-12-14-11-16-9-16-7-16-6-18-4-20-2-26v-95l2-25 4-20 8-24 8-17 10-16 11-14 11-12 10-10 17-13 18-11 17-8 18-6 23-5z" fill="#010000"/>
<path transform="translate(438,822)" d="m0 0h1172v12l-7 99v12l3 9 4 6 8 6 7 3 6 2-1 18-2 26-2 29-1 9-1 2-13 3-8 5-7 8-3 11-5 66-24 339-1 17-2 3h-168v-1h100l2-38 14-196 12-173 10-143 6-82 3-45 1-6h-1103z" fill="#B18060"/>
<path transform="translate(503,1567)" d="m0 0h1011l1 4-11 153-10 141-3 25-4 15-6 15-9 16-8 10-9 10-13 11-13 8-13 6-21 6-9 1h-723v-1l710-1-1-2 6-9 12-14 10-16 8-15 7-19 4-20 4-34 1-17 3-32 1-23 3-34 1-21 3-35 6-84 3-38 7-3 7 1h22l7-2-984-1z" fill="#AFD5F7"/>
<path transform="translate(964,1008)" d="m0 0h2l-1 6-5 24-2 17v25l3 22 5 19 6 15 8 16 9 15 10 13 13 18 8 14 6 14 5 21 1 11v12l-2 14-6 21-9 21-6 9-9-1-15-4-15-6-16-9-13-10-14-14-11-15-8-16-4-10-5-20-1-6v-118l4-20 5-15 10-19 9-12 11-12 10-9 15-10z" fill="#B18060"/>
<path transform="translate(1038,995)" d="m0 0h7l19 5 17 7 15 9 10 8 10 9 11 13 9 15 7 15 5 18 2 14 1 62v39l-2 21-4 17-6 15-10 18-9 11-11 12-14 11-10 6-4-1 4-13 5-30v-28l-3-21-6-21-9-21-8-15-14-20-8-10-10-15-7-14-5-15-3-14-1-17 2-19 6-23 8-18z" fill="#996F52"/>
<path transform="translate(1373,564)" d="m0 0h214l-1 25-10 138-2 28-2 7-5 1-1074-1v-1l34-1 979-1-2-5v-16l8-112 4-57 47-1 12-1 2-1-204-1z" fill="#AED1F0"/>
<path transform="translate(1620,324)" d="m0 0h46l11 4 4 2 2 7 1 14v22l1 3-1 7v13l1 5h-2l1 2v8l1 9-1 5v10l1 13-1 3v14l1 4v4l1 13-2 6-3 7v2h6v-108l1-56h1v166h-66v-4h-2l-2-7v-166z" fill="#996F52"/>
<path transform="translate(1478,123)" d="m0 0h12l60 4 3 2 15 41 15 40 11 30 6 15v4h-1153l1-2h1071l17-1 1-3-5-8-9-22-3-10-4-10-10-29-4-9-9-26-3-7-1-8h-11z" fill="#996F52"/>
<path transform="translate(1034 1e3)" d="m0 0h2l2 5-1 2 4 2 1 3h2l3 5 7 10v2h2l4 8 6 10 4 9 5 13 4 18 2 18 1 27v14l-1 12v27l2 6-3 3-4-5-9-19-10-15-8-11-10-13-10-16-8-20-4-18-1-17 2-19 6-23 7-14z" fill="#B18060"/>
<path transform="translate(1618,320)" d="m0 0h57l6 4 7 8v170h-8l2-9 2-2 1-9-1-9v-4l-1-10v-10l1-2-1-21v-5l1-5-1-7v-8h2l-2-5v-18l1-3-1-6v-25l-1-9-1-5h-4v-2l-5-1-6-2h-45z" fill="#AF7F5F"/>
<path transform="translate(1541,128)" d="m0 0h11l5 12 23 62 14 38 2 5v5l-3-4-3-7v-3l-3-1-6-11-1-7-3-5-2-6-3-6-2-7-4-9-1-4-4-9v-3-4l-4-4-3-11-8-14-1-3h-3v-2l-3-1z" fill="#AD7E5E"/>
<path transform="translate(1206,1081)" d="m0 0 2 4 3 23 1 19v75l-2 28-3 19-2 3 1-9 2-16v-127l-2-14z" fill="#A07456"/>
<path transform="translate(961,1023)" d="m0 0h1l-1 9-2 12-1 11v25l3 22 1 9-2-3-5-28v-26l1-10 3-13z" fill="#996F52"/>
<path transform="translate(1497,125)" d="m0 0 40 2v1h-13v2l-11-1-10 1-6-2z" fill="#B28161"/>
<path transform="translate(1026,1230)" d="m0 0 2 3 3 14 1 11v12l-2 14-2 8h-1l1-15 1-2v-24l-3-16z" fill="#996F52"/>
<path transform="translate(1686,483)" d="m0 0h1l1 19h-8l2-9 2-2 1-7z" fill="#B28161"/>
<path transform="translate(1624,971)" d="m0 0h7l-1 18h-1l-1-16z" fill="#DEAA7A"/>
<path transform="translate(1608,823)" d="m0 0h1v7l-2 6h-1l-1-8v-4z" fill="#DFA977"/>
</svg>
