<?xml version="1.0" encoding="UTF-8"?>
<svg version="1.1" viewBox="0 0 2048 2048" width="512" height="512" xmlns="http://www.w3.org/2000/svg">
<path transform="translate(512,128)" d="m0 0h62l15 1 9 4 6 4 7 8 4 9 1 5v117h64l12 2 10 6 8 9 4 9 1 6v61h57l1-59 2-10 4-8 7-8 10-6 8-2h73l12 2 9 5 5 4 7 11 2 8v179l16 2 16 5 16 9 13 12 8 10 8 15 5 17 1 7v16l-8 110-1 9 16-4 30-5 20-2 21-1h504l28 2 29 4 30 7 26 8 26 10 25 12 17 9 19 12 18 13 14 11 14 12 16 15 16 17 9 11 8 10 13 18 12 19 13 24 10 21 10 26 7 22 6 24 5 29 3 29v36l-4 18-7 16-8 13-9 10-7 7-15 10-10 5-1 16-4 19-6 15-8 14-11 13-10 9-11 7-15 7-22 6-10 2-19 12-14 9h71l16 1 12 4 11 7 9 9 7 12 4 16v84l14 7 12 9 10 9 10 13 8 15 5 16 2 10v29l-4 23-6 19-7 16-9 16-13 17-12 12-12 11-15 10-10 6-21 9-21 6-18 3-18 1h-517l4 15 3 3 14 5 11 6 12 9 12 12 7 10 8 15 5 16 2 12v23l-4 24-5 18-8 18-10 18-10 13-11 12-8 8-16 12-13 8-21 10-24 7-19 3-13 1h-936l-19-2-15-3-16-5-16-7-15-8-14-10-14-12-8-8-9-11-7-10-8-14-8-17-7-24-3-20v-25l3-15 5-14 8-15 8-10 13-13 14-9 16-7 6-2 7-24 5-15 9-19h-12l-16-2-17-5-16-8-13-9-11-10-11-14-8-14-5-13-4-18-4-49-49-682-12-168-5-60v-36l7-20 8-14 11-13 12-9 11-6 13-5 19-3 1-168 3-12 7-10 7-6 8-4 4-1h70v-63l4-12 11-12 9-5 4-1h82l11 4 9 7 6 9 3 11v62l58-1v-24l1-40 3-9 6-8 7-6 8-4 3-1h71v-31l3-10 6-10 9-7 9-4z" fill="#010101"/>
<path transform="translate(1077,725)" d="m0 0h487l25 1 28 3 26 5 25 7 25 9 24 11 21 11 19 12 18 13 13 11 11 9 22 22 9 11 11 13 13 19 10 16 10 18 9 19 11 29 8 28 5 25 3 23 1 12v32l-4 12-7 13-8 9-10 7-15 6-5 1h-1079l-16-5-11-7-9-9-8-13-4-13-1-7v-19l3-33 5-27 7-27 10-28 9-20 10-20 13-21 14-20 9-11 11-13 9-9 3-4h2v-2l8-7 7-7 11-9 19-14 20-13 24-13 24-11 25-9 25-7 26-5 26-3z" fill="#FABF97"/>
<path transform="translate(182,1739)" d="m0 0h1071l13 2 14 7 10 9 6 7 8 16 2 8v22l-4 20-7 19-10 18-8 10-9 10-8 7-13 9-15 8-24 8-18 3h-945l-19-3-21-7-19-10-13-10-16-16-10-14-8-16-6-16-3-14-1-8v-18l3-13 6-12 9-11 9-7 10-5 6-2z" fill="#FABF97"/>
<path transform="translate(791,1460)" d="m0 0h348l8 4 23 15 15 10 40 26 18 11 21 10 16 5 19 4 9 1h29l20-3 15-4 14-5 19-9 22-14 21-14 23-15 25-16 9-6h282l76 1 13 4 11 6 9 8 9 13 5 13 1 4v26l-5 21-6 15-9 17-11 14-11 11-13 10-12 7-20 8-14 4-16 2h-542l-14-21-8-10-9-10-10-10-14-11-19-12-21-10-18-6-18-4-15-2h-8l-7-13-5-4-9-3-9 2-6 4-5 8-3 5h-71l-4-10-8-7-6-2-9 1-8 6-4 6-2 5-2 1h-70l-5-10-4-5-10-4-9 1-8 6-7 12h-71l-6-12-6-5-9-3-1-1v-11l3-15 7-14 9-10 8-7 16-7z" fill="#FABF97"/>
<path transform="translate(1055,1247)" d="m0 0 4 1 11 8 16 8 13 4 12 2h25l15-3 16-6 15-9 7-5 4 2 14 9 15 7 15 4 7 1h25l15-3 14-5 13-7 11-8 6 3 10 7 17 8 15 4 7 1h25l15-3 14-5 15-8 9-7 5 2 10 7 16 8 13 4 11 2h27l17-4 16-7 13-8 5-4 4 1 11 8 16 8 13 4 12 2h26l17-4 15-6 16-10 2-2h5l8 6 6 3v3l-11 7-15 10-23 15-11 7-12 8-26 17-23 15-20 13-27 18-14 9-63 41-20 13-15 10-34 22-27 18-19 11-14 6-13 4-16 3h-27l-20-4-17-6-17-9-15-10-127-83-27-18-16-10-15-10-115-75-26-17-8-6 3-3 12-8h5l9 7 15 8 11 4 15 3h27l18-4 16-7 12-7z" fill="#F5C752"/>
<path transform="translate(74,526)" d="m0 0h92v1076l-9-2-12-5-13-9-7-7-9-14-5-13-3-30-2-22-3-48-2-23-6-88-2-28-3-37-3-46-2-28-3-36-3-47-2-28-3-36-1-20-1-7-1-20-3-36-2-35-2-26-2-23-3-48-3-40-2-24-3-46-3-41-3-38-2-32-1-8-2-32v-14l2-10 7-12 9-9 12-7z" fill="#FAFBFA"/>
<path transform="translate(355,1586)" d="m0 0h3l-1 5-8 22-1 9 3 7 5 6 7 3h9l8-4 4-4 8-19 8-22 2-2 69-1 1 2-9 24-1 3v9l4 7 7 6 3 1h10l8-4 6-9 12-31 3-7 70-1-1 6-7 18-1 4v11l5 8 3 3 5 2h11l7-4 5-6 8-19 8-21 1-1 69-1 1 3-7 18-3 8v8l4 8 7 6 3 1h10l8-4 6-9 8-20 7-18 69-1 1 4-8 21-1 4v9l4 8 9 6h11l6-3 3-1 7-14 12-32 1-1 70-1-1 5-8 22-1 9 3 8 7 6 5 2h9l8-4 4-4 8-19 8-22 2-2 69-1-1 7-8 22v9l4 7 7 6 3 1h10l8-4 6-9 10-26 5-12h20l19 3 17 5 16 7 18 11 11 9 12 11 12 15 9 15 8 17 5 16-1 1h-1024l1-5 8-21 10-19 10-13 9-10 8-8 15-11 14-8 18-8 19-5 17-2z" fill="#FA6579"/>
<path transform="translate(205,535)" d="m0 0 2 1 5 12 8 14 11 14 10 10 14 10 16 8 22 8 6 2 1 1v331l-4 4-12 8-13 10-10 9-10 11-9 14-5 11-3 11-1 17 3 16 6 15 10 15 11 12 11 10 17 12 8 5 1 2v423l-2 2-18 6-20 9-15 9-16 12-14 12-4 2h-5v-926z" fill="#F96579"/>
<path transform="translate(494,944)" d="m0 0 37 1 29 3 31 5 36 9 21 7 18 8 17 9 14 10 4 4-1 10-4 34-1 34-5 5-11 7-17 9-26 10-24 7-27 6-35 5-25 2h-57l-34-3-30-5-22-5-21-6-21-8-23-11-18-12-15-14-7-11-4-11v-13l4-10 5-8 11-12 10-8 16-10 16-8 20-8 22-7 30-7 33-5 24-2z" fill="#6ED3FA"/>
<path transform="translate(796,1172)" d="m0 0h1054l-1 10-4 13-7 12-9 10-14 9-11 4-5 1h-20l-13-4-8-4-13-9-10-5-4-1h-17l-13 5-14 10-13 6-8 2h-21l-15-5-14-9-10-6-8-3h-17l-11 4-18 12-12 5-8 2h-19l-14-4-9-5-13-9-12-5h-18l-12 5-18 12-13 5-5 1h-20l-15-5-12-7-10-7-10-4h-18l-11 4-16 11-13 6-7 2h-21l-13-4-13-7-11-8-10-4h-18l-13 5-14 10-13 6-8 2h-20l-13-4-10-5-13-9-8-4-4-1h-17l-11 4-18 12-11 5-8 2h-21l-15-5-10-6-10-7-12-5h-17l-11 4-11 7-9 6-13 5-4 1h-21l-14-4-13-8-11-11-8-14-4-15z" fill="#B1DD6A"/>
<path transform="translate(451,1169)" d="m0 0h93l1 1v157l-1 218-5 2h-9l-3-5-5-8-6-5-3-1h-10l-9 6-6 10-2 3h-23l-12-1-1-5z" fill="#FA6579"/>
<path transform="translate(789,534)" d="m0 0 1 4-1 280-4 7-12 15-14 20-10 16-10 18-11 22-12 31-4 9-4-1-12-7-1-1v-333l2-2 16-4 13-5 18-10 11-9 9-8 12-16 9-16z" fill="#F96579"/>
<path transform="translate(452,615)" d="m0 0h92l1 8v281l-1 2-51-1-42 1v-290z" fill="#FA6579"/>
<path transform="translate(340,1145)" d="m0 0 9 2 24 7 26 6 11 2 1 326v47l-4-2-3-3-7-2-9 1-6 3-4 5-4 9-34 1z" fill="#FBFCFB"/>
<path transform="translate(651,1145)" d="m0 0h4v401l-1 1h-11l-2-2-3-8-5-5v-2l-5-1-9-1-9 4-5 5-5 10h-15v-385l9-2 26-6 25-7z" fill="#FAFCFA"/>
<path transform="translate(829,526)" d="m0 0h90l9 3 10 6 8 8 6 10 3 11v17l-3 33-2 36-2 19-3 41-10 5-15 6-15 8-8 4-14 8-16 10-11 8h-2v2l-4 1v2l-6 4-8 6-5 5-2 1z" fill="#FAFCFB"/>
<path transform="translate(518,169)" d="m0 0h58v404h-58z" fill="#FFDD86"/>
<path transform="translate(704,1120)" d="m0 0 5 5 8 11 15 15 15 10 8 4 3 24 4 15 5 12 8 13 7 9 6 7 1 3v49l-18 14-9 13-5 15-1 10v55l1 21-3 3-14 8-9 7-12 11-9 12-9 17-5 17h-1v-372l5-5z" fill="#F96579"/>
<path transform="translate(585,614)" d="m0 0h70v315l-6-1-26-8-32-7-6-2z" fill="#FAFCFA"/>
<path transform="translate(340,614)" d="m0 0 70 1v296l-16 4-21 5-27 8-6 1z" fill="#FBFCFC"/>
<path transform="translate(419,231)" d="m0 0h57l1 1v340l-5 2-53-1-1-161v-34z" fill="#FEDC85"/>
<path transform="translate(1698,1335)" d="m0 0h140l7 3 4 7v74l-198 1h-73l-8-1 4-4 11-7 15-10 29-19 20-13 32-21 15-9z" fill="#AC735A"/>
<path transform="translate(806,1335)" d="m0 0h142l18 11 39 26 37 24 11 7 21 14 2 3h-278l-1-1-1-9 1-67 4-5z" fill="#AC735A"/>
<path transform="translate(222,231)" d="m0 0h57l1 1v332l-5-2-13-11-7-8-8-14-8-17-7-9-10-9-1-2v-256z" fill="#FFDD86"/>
<path transform="translate(617,316)" d="m0 0h38l20 1v255l-1 1-35 1h-22l-1-1v-248z" fill="#FDDA85"/>
<path transform="translate(321,324)" d="m0 0h56l1 1v248l-56 1-2-1v-248z" fill="#FDDB85"/>
<path transform="translate(1077,725)" d="m0 0h487l25 1 28 3 26 5 25 7 25 9 24 11 21 11 19 12 18 13 13 11 11 9 22 22 9 11 11 13 13 19 10 16 10 18 9 19 11 29 8 28 5 25 3 23 1 12v32l-4 12-7 13-8 9-10 7-9 4h-3l2-5 11-8h2v-2h2l2-4 5-7 4-7 5-16v-11l-1-17-2-12-1-17-5-25-7-24-5-15-11-29-5-11-4-9v-2h-2l-14-21v-2h-2l-7-11-8-10-2-5-12-12-6-7v-2l-4-2-11-11-11-9-18-14-16-12-7-4v-2l-4-1-14-8-24-12-24-10-24-8-19-5-17-3-26-2h-431l-35-1h-53l-23 1-21 3-29 6-12 3-7 3-9 3-20 8-22 10-12 6h-2v2l-7 3-13 8-15 10-11 8-10 9-5 5h-2l-2 4h-2v2h-2v2h-2l-2 4-10 10-1 2h-2l-2 5-4 5-4 4-6 9-6 7-7 12-3 4-3 6-9 16-8 16-5 11-5 13-8 20-9 27-4 7h-2v-13l7-26 9-25 9-20 10-20 13-21 14-20 9-11 11-13 9-9 3-4h2v-2l8-7 7-7 11-9 19-14 20-13 24-13 24-11 25-9 25-7 26-5 26-3z" fill="#FAC79A"/>
<path transform="translate(1500,1796)" d="m0 0h10l9 3 6 5 5 10 1 4v22l13-1 14 2 8 5 6 7 3 8v8l-4 10-8 8-9 3h-23v23l-4 10-8 8-9 3h-9l-8-3-8-7-4-8-1-4v-22h-24l-10-5-7-8-3-10 1-9 4-8 5-5 10-5 7-1h16l1-21 4-11 7-7z" fill="#B1E06A"/>
<path transform="translate(815,316)" d="m0 0h56l1 1v168h-58l-1-4 1-164z" fill="#FEDB84"/>
<path transform="translate(124,324)" d="m0 0h56l1 1v159l-1 1h-57l-1-2 1-158z" fill="#FEDC85"/>
<path transform="translate(716,410)" d="m0 0h56l1 1v82l-14 14-7 12-6 13-6 10-8 10h-2v2l-14 10h-1v-153z" fill="#FFDD86"/>
<path transform="translate(1038,180)" d="m0 0 3 2 6 18 8 14 11 13 10 8 14 8 16 6 6 2v3l-16 5-16 8-13 10-7 7-10 15-7 17-3 8h-3l-5-16-7-14-9-12-9-9-14-9-14-6-14-4 1-3 20-7 13-7 9-7 8-7 10-14 8-17 3-11z" fill="#F6C853"/>
<path transform="translate(518,169)" d="m0 0h58v404h-58zm21 4-13 4-2 3v47l1 10-1 127-1 107 1 48v20l1 19 3 6 6 3h23l8-3 2-2 1-4 1-29v-323l2-21-3-9-5-3z" fill="#FAE68E"/>
<path transform="translate(1979,699)" d="m0 0h2l6 17 7 13 9 11 9 8 14 8 12 5 10 3-1 3-12 3-16 8-9 6-7 6-8 10-7 12-5 13-2 6-3-1-5-15-5-10-8-11-5-6-13-10-15-7-14-4v-3l19-7 14-8 11-9 10-13 8-16 3-11z" fill="#6ED4FA"/>
<path transform="translate(419,231)" d="m0 0h57l1 1v340l-5 2-53-1 1-138h1l3 29 1 18 1 44 1 30 3 7 9 3h13l11-2 3-3 2-13v-18l1-51v-190l2-34v-9l-3-6-10-3h-17l-12 3-3 5v64l-1 18-1 19-1 6h-2v65h-1l-1-18z" fill="#F8E48D"/>
<path transform="translate(416,1912)" d="m0 0h593l28 1 10 2-4 2-8 2h-653v-1l-15-2v-1l14-2z" fill="#FFCCA0"/>
<path transform="translate(222,231)" d="m0 0h57l1 1v332l-5-2-13-11-7-8-8-14-8-17-7-9-10-9-1-2v-256zm31 4-21 3-5 5v83l1 4v26l-1 25-1 12v9l-2 2 1 1h-1v77l2 1 3 8 9 10 2 4h2l2 6 7 12 6 11 8 9 5 1 3-5 2-9v-18l-1-39v-117l-1-60 1-32 1-7v-8l-3-9-2-2-12-3z" fill="#F4DE8B"/>
<path transform="translate(373,1741)" d="m0 0h719l-3 2-14 2-69 1h-577l-41-1-15-3z" fill="#FFCCA0"/>
<path transform="translate(617,316)" d="m0 0h38l20 1v255l-1 1-35 1h-22v-12l3-3h3l5 8h32l7-1 3-10h2l-1-3-1-40-1-16-1-86-1-21v-35l1-22-2-8-3-2-18-1-15 2-6 2v89l-1 45-1 19-2 21v8h-2l-1-34-1-149z" fill="#F9E58E"/>
<path transform="translate(321,324)" d="m0 0h56l1 1v248l-56 1-2-1 1-10 5-2 2 1v2l5 2h27l9-2 2-16 1-27v-30l-1-35v-64l1-37v-17l-2-5-7-3-24 1-9 2-2 3v61l-2 40-2 8-3-1-1-119z" fill="#FDEB90"/>
<path transform="translate(866,86)" d="m0 0h12l9 4 6 5 5 9 1 4v10l-4 9-7 8-9 4h-15l-8-4-7-7-4-9v-12l4-10 9-8z" fill="#FB657A"/>
<path transform="translate(1650,1742)" d="m0 0h11l10 4 6 5 5 9 1 4v10l-4 9-7 8-9 4h-15l-8-4-7-7-4-10v-11l4-9 6-7 8-4z" fill="#F6C853"/>
<path transform="translate(124,324)" d="m0 0h56l1 1v159l-1 1h-57l-1-2 2-6 4-2 9 5h8l13 1h9l5-3 2-8v-103l2-28-1-6-2-1v-2l-25-4v2l-15 3-1 2h-2l-1 14 1 21v69l-1 11-2 4-1-12-1-1-1-15-1-73v-26z" fill="#F8E289"/>
<path transform="translate(716,410)" d="m0 0h56l1 1v82l-14 14-7 12-6 13-6 10-8 10h-2v2l-14 10h-1v-153zm34 3-12 2-10 2-5 3-2 5v59l-1 17-2-1-1 17v33l1-3 7 1 7-6 6-8 8-15 5-10 6-8 8-9 2-6v-61l-3-7-7-4z" fill="#FBE68B"/>
<path transform="translate(814,317)" d="m0 0h7l2 3-4 7v10l1 18v20l1 14v8l-1 4v9l1 3v39l-1 7v9l4 9 5 2h23l9-3 2-6 1-24 1-49v-22l1-12 2-5 1-6h1l1 83v50h-57l-1-4z" fill="#FDEA90"/>
<path transform="translate(1503,1461)" d="m0 0h13l-1 3-11 4-3 1v2l-7 4-5 2v2l-12 7-7 5h-2v2l-8 5h-2v2l-11 7-15 10-7 5-9 5-14 8-15 7-10 3-13 2-9 1-3-2v-2l17-4 12-4 18-8 14-8 35-23 23-15 25-16z" fill="#FAC79A"/>
<path transform="translate(829,1268)" d="m0 0 9 1 15 3 17 11 7 4v2l5 2 5 3v1h-52l-6-1z" fill="#F9FBF8"/>
<path transform="translate(716,410)" d="m0 0h22l18 1-4 2-7 2-15 2-6 3-2 5v59l-1 17-2 4-1 12-1 33-2-3v-136z" fill="#FCE789"/>
<path transform="translate(1904,1533)" d="m0 0h2v2h2l1 10-5 17-10 21-10 14-9 10-12 11-14 9-14 7-8 3-5-1 2-4 7-3 6-1v-2h3l1-3 11-6 11-9 13-13 5-7h2l2-5 5-7 10-24 2-14z" fill="#F9C699"/>
<path transform="translate(124,324)" d="m0 0h56v1l-32 1v2l-15 3-1 2h-2l-1 14 1 21v69l-1 11-2 4-1-12-1-1-1-15-1-73v-26z" fill="#FAE78E"/>
<path transform="translate(1375,1641)" d="m0 0h11 1 25l16 1h308l58 1v1h-542v-1l39-1z" fill="#C56E64"/>
<path transform="translate(1851,1462)" d="m0 0h16l11 4 10 6 8 7 9 13 5 13 1 4v18l-1-3h-4l-4-16-10-20-11-12-14-8-9-3-7-2z" fill="#FBC79A"/>
<path transform="translate(1292,1849)" d="m0 0 1 4-8 14-8 10-9 10-8 7-13 9-15 8-14 5h-6l4-4 7-3 10-6 10-5h2v-2l8-6 10-9 12-12 5-7 5-5 2-3h2l2-4z" fill="#F8C599"/>
<path transform="translate(138,1839)" d="m0 0 5 1 3 9 7 14 5 5 1 6h2v2h2v2l4 2v2h2v2l4 2 8 6 11 8 8 5 11 5 11 4 1 2h-7l-15-6-15-8-13-10-16-16-10-14-8-16z" fill="#F9C496"/>
<path transform="translate(1505,1460)" d="m0 0h278v1l-33 1-1 1h-85l-159-2z" fill="#CA9556"/>
<path transform="translate(172,1740)" d="m0 0 30 1v1h-7v2l-4 1-16 1-9 1-6 3h-2v2l-5 2v2h-3l-2 5h-2l-1 4-3 5h-2v2h-2v5l-5 4v-6l5-10 9-11 9-7 10-5z" fill="#F9C597"/>
<path transform="translate(741,1094)" d="m0 0 4 1 11 12 2 5 3 1 5 8 9 4 7 2v3l-13-2-10-6-10-9-6-8-3-5z" fill="#F9C598"/>
<path transform="translate(1231,1611)" d="m0 0 5 2 8 5 8 9v7l5 5 1 4h-7l-10-16-10-13z" fill="#FAC699"/>
<path transform="translate(138,1839)" d="m0 0 5 1 3 9 7 14 5 5 1 6h2v2h2l-1 3-4-2-9-12-9-16-2-5z" fill="#F8C595"/>
<path transform="translate(1257,1742)" d="m0 0h12l11 6 10 9 5 6-1 3-4-3-5-2-4-5v-2l-3-1v-3h-2v-2l-5-1-11-2z" fill="#FAC697"/>
<path transform="translate(774,1463)" d="m0 0 4 1-10 7-9 4-5 5-6 9-6 2 2-5 9-10 8-7z" fill="#F3BE93"/>
<path transform="translate(829,1270)" d="m0 0h1v23h50l-1-3 5 2 3 3h-52l-6-1z" fill="#B1B969"/>
<path transform="translate(1202,1581)" d="m0 0 7 2v2l7 2 9 9 2 6h-3l-8-7-4-4v-2h-6l-4-6z" fill="#FECB9E"/>
<path transform="translate(734,1515)" d="m0 0h1l1 7 1 2 7 1 6 3 4 6 2 5 1 4-2 2-5-10-6-5-9-3-1-1z" fill="#EDBA90"/>
<path transform="translate(756,1473)" d="m0 0 2 1-5 9-3 2-2 4-6 2 2-5 9-10z" fill="#F7C392"/>
<path transform="translate(410,1488)" d="m0 0h1v47l-4-2-1-2h2l1-3z" fill="#AD855C"/>
<path transform="translate(1727,1265)" d="m0 0v3l-11 7-14 9-3-1 15-10 7-4z" fill="#F1CA77"/>
<path transform="translate(1299,1829)" d="m0 0 2 1-2 9-4 10-2-2 1-5 2-3v-7z" fill="#F1BD8B"/>
<path transform="translate(137,1827)" d="m0 0 2 2v6l-1 2-3-1-1-8z" fill="#F9C398"/>
<path transform="translate(951,1528)" d="m0 0m-1 1 3 2-7 6-3 7-2-3 2-5z" fill="#EAB58A"/>
<path transform="translate(1072,1525)" d="m0 0h7l5 2v1h-14v-2z" fill="#F0BC8E"/>
<path transform="translate(1909,1074)" d="m0 0h1l1 10-2 4-2-11z" fill="#EBB189"/>
<path transform="translate(870,317)" d="m0 0h1v9h-2v-2h-2l-1-4 1-2z" fill="#FFEF93"/>
<path transform="translate(961,1524)" d="m0 0 6 1 2 2-12 1 1-3z" fill="#FBC89D"/>
</svg>
